<svg width="237" height="51" viewBox="0 0 237 51" fill="none" xmlns="http://www.w3.org/2000/svg">
<g clip-path="url(#clip0_2400_1338)">
<path d="M77.7668 2.81686C81.939 2.81686 85.4304 4.20968 88.2411 6.99532C91.0517 9.78096 92.457 13.2099 92.457 17.2822C92.457 21.317 91.0517 24.7397 88.2411 27.5503C85.4429 30.361 82.0265 31.7663 77.9916 31.7663C73.9069 31.7663 70.4592 30.3672 67.6485 27.5691C64.8379 24.771 63.4326 21.3857 63.4326 17.4134C63.4326 14.7651 64.0697 12.3105 65.3438 10.0495C66.6305 7.78854 68.3793 6.02097 70.5903 4.74682C72.8014 3.46018 75.1935 2.81686 77.7668 2.81686ZM77.898 5.51506C75.8618 5.51506 73.9319 6.04596 72.1081 7.10775C70.2843 8.16954 68.8602 9.59983 67.8359 11.3986C66.8116 13.1974 66.2994 15.2023 66.2994 17.4134C66.2994 20.6862 67.4299 23.4531 69.6909 25.7141C71.9644 27.9626 74.7001 29.0868 77.898 29.0868C80.034 29.0868 82.0077 28.5684 83.819 27.5316C85.6428 26.4948 87.0606 25.077 88.0724 23.2782C89.0967 21.4794 89.6089 19.4807 89.6089 17.2822C89.6089 15.0962 89.0967 13.1225 88.0724 11.3612C87.0606 9.58734 85.6303 8.16954 83.7815 7.10775C81.9328 6.04596 79.9716 5.51506 77.898 5.51506ZM97.9658 3.51015H103.456C106.604 3.51015 108.727 3.64756 109.827 3.92237C111.401 4.30961 112.687 5.10908 113.687 6.32077C114.686 7.51997 115.186 9.03146 115.186 10.8552C115.186 12.6915 114.698 14.2093 113.724 15.4085C112.75 16.5952 111.407 17.3946 109.695 17.8069C108.446 18.1067 106.11 18.2566 102.688 18.2566H100.72V31.073H97.9658V3.51015ZM100.72 6.18961V15.5584L105.386 15.6146C107.272 15.6146 108.652 15.4459 109.527 15.1087C110.401 14.7589 111.088 14.203 111.588 13.441C112.088 12.6665 112.337 11.8046 112.337 10.8552C112.337 9.93086 112.088 9.08768 111.588 8.32568C111.088 7.5512 110.426 7.00157 109.602 6.67678C108.79 6.352 107.453 6.18961 105.592 6.18961H100.72ZM117.959 6.18961V3.51015H133.08V6.18961H126.934V31.073H124.123V6.18961H117.959ZM139.732 31.073H136.996V3.51015H150.806V6.22708H139.732V31.073ZM154.74 3.51015H160.23C163.378 3.51015 165.502 3.64756 166.601 3.92237C168.175 4.30961 169.462 5.10908 170.461 6.32077C171.46 7.51997 171.96 9.03146 171.96 10.8552C171.96 12.6915 171.473 14.2093 170.499 15.4085C169.524 16.5952 168.181 17.3946 166.47 17.8069C165.221 18.1067 162.885 18.2566 159.462 18.2566H157.495V31.073H154.74V3.51015ZM157.495 6.18961V15.5584L162.16 15.6146C164.047 15.6146 165.427 15.4459 166.301 15.1087C167.176 14.7589 167.863 14.203 168.363 13.441C168.862 12.6665 169.112 11.8046 169.112 10.8552C169.112 9.93086 168.862 9.08768 168.363 8.32568C167.863 7.5512 167.201 7.00157 166.376 6.67678C165.564 6.352 164.228 6.18961 162.367 6.18961H157.495ZM188.73 3.51015L201.584 31.073H198.624L194.295 22.0041H182.416L178.106 31.073H175.033L188.056 3.51015H188.73ZM188.393 9.35625L183.652 19.3433H193.077L188.393 9.35625ZM217.848 3.51015H220.603V7.0328H222.72C226.867 7.0328 229.747 7.84475 231.358 9.46867C232.969 11.0801 233.775 13.0163 233.775 15.2773C233.775 17.3384 233.063 19.1747 231.639 20.7861C230.228 22.385 227.542 23.1845 223.582 23.1845H220.603V31.073H217.848V23.1845H214.888C212.789 23.1845 211.053 22.9846 209.679 22.5849C208.305 22.1727 207.124 21.3045 206.137 19.9804C205.163 18.6438 204.676 17.0761 204.676 15.2773C204.676 13.0288 205.475 11.0926 207.074 9.46867C208.673 7.84475 211.565 7.0328 215.75 7.0328H217.848V3.51015ZM220.603 9.69352V20.5238H223.507L224.987 20.5425C226.911 20.5425 228.379 20.0429 229.391 19.0435C230.415 18.0317 230.927 16.7638 230.927 15.2398C230.927 13.5534 230.327 12.2106 229.128 11.2113C227.929 10.1994 226.118 9.69352 223.694 9.69352H220.603ZM217.848 9.69352H214.757C212.496 9.69352 210.722 10.1744 209.435 11.1363C208.161 12.0857 207.524 13.4473 207.524 15.2211C207.524 16.7451 208.03 18.013 209.042 19.0248C210.053 20.0366 211.565 20.5425 213.576 20.5425L214.963 20.5238H217.848V9.69352Z" fill="#111111"/>
<path d="M61.7369 46.8418L62.5935 40.8124H62.6919L65.143 45.7597L67.5695 40.8124H67.6679L68.5327 46.8418H67.9384L67.3482 42.5298L65.2168 46.8418H65.0651L62.905 42.497L62.3189 46.8418H61.7369ZM72.1889 40.8124L75.0007 46.8418H74.3531L73.4062 44.858H70.8076L69.8648 46.8418H69.1926L72.0413 40.8124H72.1889ZM72.1151 42.0913L71.0781 44.2759H73.1398L72.1151 42.0913ZM75.3409 41.3986V40.8124H78.6486V41.3986H77.3042V46.8418H76.6894V41.3986H75.3409ZM79.5176 40.8124H82.9729V41.4068H80.1201V43.2922H82.9483V43.8824H80.1201V46.2475H82.9483V46.8418H79.5176V40.8124ZM84.0099 40.8124H85.2108C85.8995 40.8124 86.364 40.8425 86.6045 40.9026C86.9488 40.9873 87.2302 41.1622 87.4488 41.4272C87.6674 41.6896 87.7767 42.0202 87.7767 42.4192C87.7767 42.8208 87.6701 43.1529 87.457 43.4152C87.2439 43.6748 86.9501 43.8497 86.5758 43.9398C86.3025 44.0054 85.7915 44.0382 85.0428 44.0382H84.6124V46.8418H84.0099V40.8124ZM84.6124 41.3986V43.448L85.633 43.4603C86.0456 43.4603 86.3476 43.4234 86.5389 43.3496C86.7301 43.2731 86.8804 43.1515 86.9897 42.9848C87.099 42.8154 87.1537 42.6268 87.1537 42.4192C87.1537 42.217 87.099 42.0325 86.9897 41.8658C86.8804 41.6964 86.7356 41.5762 86.5553 41.5051C86.3776 41.4341 86.0853 41.3986 85.6781 41.3986H84.6124ZM93.72 46.8418H93.0929V42.2224L89.1211 46.8418H88.9859V40.8124H89.5884V45.5138L93.5848 40.8124H93.72V46.8418ZM97.659 40.8124L100.471 46.8418H99.8232L98.8763 44.858H96.2777L95.335 46.8418H94.6627L97.5114 40.8124H97.659ZM97.5852 42.0913L96.5482 44.2759H98.6099L97.5852 42.0913ZM106.291 46.8418H105.635L103.639 42.1814L101.606 46.8418H100.95L103.574 40.8124H103.705L106.291 46.8418ZM107.299 40.8124H107.902V43.3988H108.336C109.126 43.3988 109.693 43.437 110.037 43.5135C110.382 43.5901 110.659 43.7663 110.87 44.0423C111.08 44.3156 111.185 44.6694 111.185 45.1039C111.185 45.5302 111.083 45.884 110.878 46.1655C110.673 46.4442 110.412 46.6273 110.095 46.7147C109.778 46.7994 109.246 46.8418 108.5 46.8418H107.299V40.8124ZM107.902 46.2598H108.545C109.223 46.2598 109.664 46.2283 109.869 46.1655C110.077 46.0999 110.241 45.9797 110.361 45.8048C110.484 45.6299 110.546 45.4058 110.546 45.1326C110.546 44.832 110.469 44.5874 110.316 44.3989C110.163 44.2104 109.968 44.0956 109.73 44.0546C109.495 44.0109 109.055 43.989 108.41 43.989H107.902V46.2598ZM111.894 40.8124H112.497V46.8418H111.894V40.8124ZM116.272 47.7435H115.677V46.2803H116.169L118.534 40.8124H118.743L121.24 46.2803H121.711V47.7435H121.117V46.8418H116.272V47.7435ZM116.85 46.2803H120.526L118.641 42.0585L116.85 46.2803ZM127.449 46.8418H126.793L124.797 42.1814L122.764 46.8418H122.108L124.732 40.8124H124.863L127.449 46.8418ZM131.88 40.8124H130.679C130.01 40.8124 129.556 40.8397 129.318 40.8944C128.96 40.9764 128.669 41.1526 128.445 41.4231C128.221 41.6909 128.109 42.0216 128.109 42.4151C128.109 42.743 128.186 43.0313 128.339 43.2799C128.494 43.5286 128.716 43.7171 129.003 43.8456C129.29 43.9713 129.686 44.0355 130.191 44.0382L128.023 46.8418H128.769L130.933 44.0382H131.278V46.8418H131.88V40.8124ZM131.278 41.4027V43.4521L130.241 43.4603C129.839 43.4603 129.541 43.422 129.347 43.3455C129.156 43.269 129.005 43.1474 128.896 42.9807C128.79 42.8113 128.736 42.6227 128.736 42.4151C128.736 42.2129 128.791 42.0298 128.9 41.8658C129.01 41.6991 129.153 41.5803 129.331 41.5092C129.508 41.4382 129.803 41.4027 130.216 41.4027H131.278ZM135.692 40.8124H136.307V43.075L138.713 40.8124H139.528L136.631 43.5176L139.754 46.8418H138.955L136.307 44.03V46.8418H135.692V40.8124ZM140.647 40.8124H141.848C142.537 40.8124 143.002 40.8425 143.242 40.9026C143.586 40.9873 143.868 41.1622 144.086 41.4272C144.305 41.6896 144.414 42.0202 144.414 42.4192C144.414 42.8208 144.308 43.1529 144.095 43.4152C143.881 43.6748 143.588 43.8497 143.213 43.9398C142.94 44.0054 142.429 44.0382 141.68 44.0382H141.25V46.8418H140.647V40.8124ZM141.25 41.3986V43.448L142.271 43.4603C142.683 43.4603 142.985 43.4234 143.176 43.3496C143.368 43.2731 143.518 43.1515 143.627 42.9848C143.737 42.8154 143.791 42.6268 143.791 42.4192C143.791 42.217 143.737 42.0325 143.627 41.8658C143.518 41.6964 143.373 41.5762 143.193 41.5051C143.015 41.4341 142.723 41.3986 142.316 41.3986H141.25ZM148.083 40.8124L150.895 46.8418H150.247L149.3 44.858H146.701L145.759 46.8418H145.087L147.935 40.8124H148.083ZM148.009 42.0913L146.972 44.2759H149.034L148.009 42.0913ZM157.449 41.9314L156.973 42.2962C156.711 41.9546 156.395 41.6964 156.026 41.5215C155.66 41.3439 155.257 41.2551 154.817 41.2551C154.336 41.2551 153.891 41.3712 153.481 41.6035C153.071 41.833 152.753 42.1432 152.526 42.5339C152.302 42.922 152.19 43.3592 152.19 43.8456C152.19 44.5806 152.441 45.1941 152.944 45.6859C153.449 46.1778 154.086 46.4237 154.854 46.4237C155.698 46.4237 156.405 46.0931 156.973 45.4318L157.449 45.7925C157.148 46.1751 156.772 46.4715 156.321 46.6819C155.873 46.8896 155.372 46.9935 154.817 46.9935C153.762 46.9935 152.93 46.6423 152.321 45.9401C151.81 45.3471 151.554 44.6312 151.554 43.7923C151.554 42.9097 151.863 42.1678 152.481 41.5666C153.101 40.9627 153.877 40.6608 154.809 40.6608C155.372 40.6608 155.88 40.7728 156.334 40.9969C156.787 41.2182 157.159 41.5297 157.449 41.9314ZM163.4 46.8418H162.773V42.2224L158.801 46.8418H158.666V40.8124H159.268V45.5138L163.265 40.8124H163.4V46.8418ZM164.892 40.8124H166.081C166.559 40.8124 166.926 40.8698 167.183 40.9846C167.44 41.0966 167.642 41.2701 167.79 41.5051C167.94 41.7401 168.015 42.0011 168.015 42.288C168.015 42.5558 167.95 42.8004 167.819 43.0217C167.687 43.2403 167.495 43.4179 167.241 43.5545C167.555 43.6611 167.797 43.7868 167.966 43.9316C168.136 44.0737 168.267 44.2472 168.36 44.4522C168.455 44.6544 168.503 44.8744 168.503 45.1121C168.503 45.5958 168.325 46.0056 167.97 46.3417C167.618 46.6751 167.144 46.8418 166.548 46.8418H164.892V40.8124ZM165.482 41.4027V43.3332H165.827C166.245 43.3332 166.552 43.2949 166.749 43.2184C166.946 43.1392 167.101 43.0162 167.216 42.8495C167.331 42.6801 167.388 42.4929 167.388 42.288C167.388 42.012 167.291 41.7961 167.097 41.6404C166.906 41.4819 166.6 41.4027 166.179 41.4027H165.482ZM165.482 43.9398V46.2516H166.228C166.668 46.2516 166.991 46.2092 167.196 46.1245C167.401 46.0371 167.564 45.9018 167.687 45.7187C167.813 45.5356 167.876 45.3375 167.876 45.1244C167.876 44.8566 167.789 44.623 167.614 44.4235C167.439 44.224 167.198 44.0874 166.892 44.0136C166.687 43.9644 166.331 43.9398 165.822 43.9398H165.482ZM169.692 40.8124H170.294V43.3988H170.729C171.518 43.3988 172.085 43.437 172.43 43.5135C172.774 43.5901 173.051 43.7663 173.262 44.0423C173.472 44.3156 173.577 44.6694 173.577 45.1039C173.577 45.5302 173.475 45.884 173.27 46.1655C173.065 46.4442 172.804 46.6273 172.487 46.7147C172.17 46.7994 171.639 46.8418 170.893 46.8418H169.692V40.8124ZM170.294 46.2598H170.938C171.615 46.2598 172.057 46.2283 172.262 46.1655C172.469 46.0999 172.633 45.9797 172.754 45.8048C172.877 45.6299 172.938 45.4058 172.938 45.1326C172.938 44.832 172.862 44.5874 172.709 44.3989C172.555 44.2104 172.36 44.0956 172.122 44.0546C171.887 44.0109 171.447 43.989 170.803 43.989H170.294V46.2598ZM174.287 40.8124H174.889V46.8418H174.287V40.8124ZM176.033 40.8124H176.738L178.18 43.1651L179.636 40.8124H180.332L178.537 43.7349L180.451 46.8418H179.746L178.18 44.3128L176.606 46.8418H175.901L177.824 43.7349L176.033 40.8124ZM188.534 46.8418H187.907V42.2224L183.935 46.8418H183.8V40.8124H184.402V45.5138L188.399 40.8124H188.534V46.8418ZM190.001 40.8124H190.608V43.3414H193.674V40.8124H194.281V46.8418H193.674V43.9316H190.608V46.8418H190.001V40.8124ZM195.15 41.3986V40.8124H198.457V41.3986H197.113V46.8418H196.498V41.3986H195.15ZM199.326 40.8124H202.782V41.4068H199.929V43.2922H202.757V43.8824H199.929V46.2475H202.757V46.8418H199.326V40.8124ZM203.819 40.8124H205.02C205.708 40.8124 206.173 40.8425 206.413 40.9026C206.757 40.9873 207.039 41.1622 207.258 41.4272C207.476 41.6896 207.585 42.0202 207.585 42.4192C207.585 42.8208 207.479 43.1529 207.266 43.4152C207.053 43.6748 206.759 43.8497 206.384 43.9398C206.111 44.0054 205.6 44.0382 204.851 44.0382H204.421V46.8418H203.819V40.8124ZM204.421 41.3986V43.448L205.442 43.4603C205.854 43.4603 206.156 43.4234 206.348 43.3496C206.539 43.2731 206.689 43.1515 206.798 42.9848C206.908 42.8154 206.962 42.6268 206.962 42.4192C206.962 42.217 206.908 42.0325 206.798 41.8658C206.689 41.6964 206.544 41.5762 206.364 41.5051C206.186 41.4341 205.894 41.3986 205.487 41.3986H204.421ZM208.786 40.8124H209.389V43.3988H209.823C210.613 43.3988 211.18 43.437 211.524 43.5135C211.869 43.5901 212.146 43.7663 212.356 44.0423C212.567 44.3156 212.672 44.6694 212.672 45.1039C212.672 45.5302 212.57 45.884 212.365 46.1655C212.16 46.4442 211.899 46.6273 211.582 46.7147C211.265 46.7994 210.733 46.8418 209.987 46.8418H208.786V40.8124ZM209.389 46.2598H210.032C210.71 46.2598 211.151 46.2283 211.356 46.1655C211.564 46.0999 211.728 45.9797 211.848 45.8048C211.971 45.6299 212.033 45.4058 212.033 45.1326C212.033 44.832 211.956 44.5874 211.803 44.3989C211.65 44.2104 211.455 44.0956 211.217 44.0546C210.982 44.0109 210.542 43.989 209.897 43.989H209.389V46.2598ZM213.885 40.8124H217.341V41.4068H214.488V43.2922H217.316V43.8824H214.488V46.2475H217.316V46.8418H213.885V40.8124ZM218.378 40.8124H219.579C220.267 40.8124 220.732 40.8425 220.972 40.9026C221.316 40.9873 221.598 41.1622 221.817 41.4272C222.035 41.6896 222.144 42.0202 222.144 42.4192C222.144 42.8208 222.038 43.1529 221.825 43.4152C221.612 43.6748 221.318 43.8497 220.943 43.9398C220.67 44.0054 220.159 44.0382 219.411 44.0382H218.98V46.8418H218.378V40.8124ZM218.98 41.3986V43.448L220.001 43.4603C220.413 43.4603 220.715 43.4234 220.907 43.3496C221.098 43.2731 221.248 43.1515 221.357 42.9848C221.467 42.8154 221.521 42.6268 221.521 42.4192C221.521 42.217 221.467 42.0325 221.357 41.8658C221.248 41.6964 221.103 41.5762 220.923 41.5051C220.745 41.4341 220.453 41.3986 220.046 41.3986H218.98ZM226.223 40.6608C227.135 40.6608 227.899 40.9654 228.514 41.5748C229.129 42.1842 229.436 42.9342 229.436 43.8251C229.436 44.7077 229.129 45.4564 228.514 46.0712C227.902 46.686 227.155 46.9935 226.272 46.9935C225.378 46.9935 224.624 46.6874 224.009 46.0753C223.395 45.4632 223.087 44.7227 223.087 43.8538C223.087 43.2745 223.227 42.7375 223.505 42.2429C223.787 41.7483 224.169 41.3617 224.653 41.0829C225.137 40.8015 225.66 40.6608 226.223 40.6608ZM226.251 41.251C225.806 41.251 225.384 41.3671 224.985 41.5994C224.586 41.8317 224.274 42.1445 224.05 42.538C223.826 42.9315 223.714 43.3701 223.714 43.8538C223.714 44.5697 223.962 45.1749 224.456 45.6695C224.954 46.1614 225.552 46.4073 226.251 46.4073C226.719 46.4073 227.15 46.2939 227.547 46.0671C227.946 45.8403 228.256 45.5302 228.477 45.1367C228.701 44.7432 228.813 44.306 228.813 43.8251C228.813 43.3469 228.701 42.9151 228.477 42.5298C228.256 42.1418 227.943 41.8317 227.539 41.5994C227.134 41.3671 226.705 41.251 226.251 41.251ZM230.662 40.8124H231.85C232.329 40.8124 232.696 40.8698 232.953 40.9846C233.21 41.0966 233.412 41.2701 233.56 41.5051C233.71 41.7401 233.785 42.0011 233.785 42.288C233.785 42.5558 233.72 42.8004 233.588 43.0217C233.457 43.2403 233.265 43.4179 233.01 43.5545C233.325 43.6611 233.567 43.7868 233.736 43.9316C233.905 44.0737 234.037 44.2472 234.129 44.4522C234.225 44.6544 234.273 44.8744 234.273 45.1121C234.273 45.5958 234.095 46.0056 233.74 46.3417C233.388 46.6751 232.913 46.8418 232.318 46.8418H230.662V40.8124ZM231.252 41.4027V43.3332H231.596C232.014 43.3332 232.322 43.2949 232.519 43.2184C232.715 43.1392 232.871 43.0162 232.986 42.8495C233.101 42.6801 233.158 42.4929 233.158 42.288C233.158 42.012 233.061 41.7961 232.867 41.6404C232.676 41.4819 232.37 41.4027 231.949 41.4027H231.252ZM231.252 43.9398V46.2516H231.998C232.438 46.2516 232.76 46.2092 232.965 46.1245C233.17 46.0371 233.334 45.9018 233.457 45.7187C233.583 45.5356 233.646 45.3375 233.646 45.1244C233.646 44.8566 233.558 44.623 233.383 44.4235C233.209 44.224 232.968 44.0874 232.662 44.0136C232.457 43.9644 232.101 43.9398 231.592 43.9398H231.252Z" fill="#111111"/>
<g clip-path="url(#clip1_2400_1338)">
<path d="M24.5124 0.467529C15.6655 0.467529 14.124 15.2124 14.4591 22.5848C20.089 7.30378 39.5924 19.5688 48.6403 27.6115C45.6243 14.5422 34.5657 0.467529 24.5124 0.467529Z" fill="#FF7770"/>
<path d="M2.45216 42.0141C7.26514 49.4372 20.4757 42.709 26.4793 38.417C10.5947 42.0065 10.2755 18.9693 12.1014 7.00206C2.77619 16.6428 -3.01713 33.5787 2.45216 42.0141Z" fill="#DD1E24"/>
<path d="M48.6107 39.4164C52.6424 31.5416 40.2201 23.45 33.505 20.3885C44.5414 32.3636 24.736 44.1347 13.4538 48.5234C26.4615 51.7947 44.0293 48.3651 48.6107 39.4164Z" fill="#9F1D20"/>
</g>
</g>
<defs>
<clipPath id="clip0_2400_1338">
<rect width="236.236" height="50" fill="white" transform="translate(0 0.5)"/>
</clipPath>
<clipPath id="clip1_2400_1338">
<rect width="49.7191" height="50" fill="white" transform="translate(0 0.5)"/>
</clipPath>
</defs>
</svg>
